<?xml version="1.0" standalone="no"?>
<svg xmlns:xlink="http://www.w3.org/1999/xlink" id="wave" style="transform:rotate(0deg); transition: 0.3s" viewBox="0 0 1440 270" version="1.1" xmlns="http://www.w3.org/2000/svg"><defs><linearGradient id="sw-gradient-0" x1="0" x2="0" y1="1" y2="0"><stop stop-color="rgba(23, 37, 42, 1)" offset="0%"/><stop stop-color="rgba(61.859, 154.275, 157.516, 1)" offset="100%"/></linearGradient></defs><path style="transform:translate(0, 0px); opacity:1" fill="url(#sw-gradient-0)" d="M0,0L30,13.5C60,27,120,54,180,76.5C240,99,300,117,360,139.5C420,162,480,189,540,184.5C600,180,660,144,720,108C780,72,840,36,900,54C960,72,1020,144,1080,157.5C1140,171,1200,126,1260,121.5C1320,117,1380,153,1440,166.5C1500,180,1560,171,1620,139.5C1680,108,1740,54,1800,31.5C1860,9,1920,18,1980,36C2040,54,2100,81,2160,85.5C2220,90,2280,72,2340,58.5C2400,45,2460,36,2520,63C2580,90,2640,153,2700,148.5C2760,144,2820,72,2880,40.5C2940,9,3000,18,3060,31.5C3120,45,3180,63,3240,99C3300,135,3360,189,3420,184.5C3480,180,3540,117,3600,94.5C3660,72,3720,90,3780,108C3840,126,3900,144,3960,144C4020,144,4080,126,4140,108C4200,90,4260,72,4290,63L4320,54L4320,270L4290,270C4260,270,4200,270,4140,270C4080,270,4020,270,3960,270C3900,270,3840,270,3780,270C3720,270,3660,270,3600,270C3540,270,3480,270,3420,270C3360,270,3300,270,3240,270C3180,270,3120,270,3060,270C3000,270,2940,270,2880,270C2820,270,2760,270,2700,270C2640,270,2580,270,2520,270C2460,270,2400,270,2340,270C2280,270,2220,270,2160,270C2100,270,2040,270,1980,270C1920,270,1860,270,1800,270C1740,270,1680,270,1620,270C1560,270,1500,270,1440,270C1380,270,1320,270,1260,270C1200,270,1140,270,1080,270C1020,270,960,270,900,270C840,270,780,270,720,270C660,270,600,270,540,270C480,270,420,270,360,270C300,270,240,270,180,270C120,270,60,270,30,270L0,270Z"/></svg>