<?xml version="1.0" standalone="no"?>
<svg xmlns:xlink="http://www.w3.org/1999/xlink" id="wave" style="transform:rotate(0deg); transition: 0.3s" viewBox="0 0 1440 250" version="1.1" xmlns="http://www.w3.org/2000/svg"><defs><linearGradient id="sw-gradient-0" x1="0" x2="0" y1="1" y2="0"><stop stop-color="rgba(23, 37, 42, 1)" offset="0%"/><stop stop-color="rgba(61.859, 154.275, 157.516, 1)" offset="100%"/></linearGradient></defs><path style="transform:translate(0, 0px); opacity:1" fill="url(#sw-gradient-0)" d="M0,125L48,116.7C96,108,192,92,288,70.8C384,50,480,25,576,37.5C672,50,768,100,864,133.3C960,167,1056,183,1152,166.7C1248,150,1344,100,1440,75C1536,50,1632,50,1728,66.7C1824,83,1920,117,2016,125C2112,133,2208,117,2304,129.2C2400,142,2496,183,2592,183.3C2688,183,2784,142,2880,125C2976,108,3072,117,3168,125C3264,133,3360,142,3456,137.5C3552,133,3648,117,3744,108.3C3840,100,3936,100,4032,100C4128,100,4224,100,4320,87.5C4416,75,4512,50,4608,50C4704,50,4800,75,4896,95.8C4992,117,5088,133,5184,120.8C5280,108,5376,67,5472,70.8C5568,75,5664,125,5760,129.2C5856,133,5952,92,6048,87.5C6144,83,6240,117,6336,108.3C6432,100,6528,50,6624,50C6720,50,6816,100,6864,125L6912,150L6912,250L6864,250C6816,250,6720,250,6624,250C6528,250,6432,250,6336,250C6240,250,6144,250,6048,250C5952,250,5856,250,5760,250C5664,250,5568,250,5472,250C5376,250,5280,250,5184,250C5088,250,4992,250,4896,250C4800,250,4704,250,4608,250C4512,250,4416,250,4320,250C4224,250,4128,250,4032,250C3936,250,3840,250,3744,250C3648,250,3552,250,3456,250C3360,250,3264,250,3168,250C3072,250,2976,250,2880,250C2784,250,2688,250,2592,250C2496,250,2400,250,2304,250C2208,250,2112,250,2016,250C1920,250,1824,250,1728,250C1632,250,1536,250,1440,250C1344,250,1248,250,1152,250C1056,250,960,250,864,250C768,250,672,250,576,250C480,250,384,250,288,250C192,250,96,250,48,250L0,250Z"/></svg>